# xmcd
#
# Track frame offsets:
#	150
#	17653
#	36109
#	48344
#	59882
#	72548
#	83438
#	99132
#	112511
#	124504
#	142780
#	174747
#	193402
#	210474
#	220214
#	238400
#	251582
#	265103
#
# Disc length: 3913 seconds
#
# Revision: 1
# Processed by: cddbd v1.5.2PL0 Copyright (c) Steve Scherf et al.
# Submitted via: audiograbber 1.83.01
#
DISCID=fc0f4712
DTITLE=Blues - Rythm 'n' Blues
DYEAR=1990
DGENRE=blues
TTITLE0=Track  Rainy Night In Georgia
TTITLE1=Track  Spinning Wheel
TTITLE2=Track  Moon River
TTITLE3=Track  Everybody Eats When They Come To My House
TTITLE4=Track  Cowboys To Girls
TTITLE5=Track  Ain't That A Shame
TTITLE6=Track  Knock On Wood
TTITLE7=Track  Baby I Need Your Loving
TTITLE8=Track  A Natural Woman
TTITLE9=Track  Let's Get It On
TTITLE10=Track  The Message
TTITLE11=Track  Everyone's A Winner
TTITLE12=Track  I Don't Want To Set The World On Fire
TTITLE13=Track  Let's Twist Again
TTITLE14=Track  I'm Your Boogie Man
TTITLE15=Track  Stand By Me
TTITLE16=Track  Notbush city Limits
TTITLE17=Track  Rock Your Baby
EXTD=
EXTT0=Brook Benton
EXTT1=Blood, Sweat and Tears
EXTT2=Jerry Buttler
EXTT3=Cab Calloway and His Orchestra
EXTT4=The Commodores
EXTT5=Fats Domino
EXTT6=Eddie Floyd
EXTT7=The Four Tops
EXTT8=Aretha Franklin
EXTT9=Marvin Gaye
EXTT10=Grandmaster Flash and Melle Mel
EXTT11=Hot Chocolate
EXTT12=The INK SPOTS
EXTT13=The Isley Brothers
EXTT14=KC and The Sunshine Band
EXTT15=Ben E King
EXTT16=Tina Turner
EXTT17=George McCrea
PLAYORDER=
